<svg fill="#fff" preserveAspectRatio="xMidYMid meet" height="150" width="150" role="img" aria-labelledby="title" viewBox="0 0 408 200" class="c"><title id="title">Logo</title><g transform="translate(0.000000,200.000000) scale(0.100000,-0.100000)" stroke="none"><path d="M37 1962 l-37 -38 0 -925 0 -925 38 -37 38 -37 520 0 520 0 32 33 32 33 0 878 0 878 -82 89 -82 89 -471 0 -471 0 -37 -38z m901 -111 c-1 -5 -174 -199 -383 -431 -209 -233 -385 -431 -392 -439 -10 -13 -12 78 -13 432 l0 447 396 0 c221 0 394 -4 392 -9z m102 -916 l0 -795 -445 0 -445 0 0 308 1 307 442 487 c243 268 443 488 445 488 1 0 2 -358 2 -795z"></path><path d="M1111 1933 l63 -68 530 -5 530 -5 -512 -532 -512 -533 0 -395 0 -395 1437 0 1437 0 -69 70 -69 70 -1293 0 -1293 0 0 293 0 292 583 616 c320 339 591 626 601 638 l19 21 -758 0 -757 0 63 -67z"></path><path d="M2441 1843 l-150 -158 2 -760 2 -760 57 -3 57 -3 545 628 545 628 0 293 1 292 -454 0 -454 0 -151 -157z m917 -179 l2 -191 -441 -509 c-243 -280 -450 -518 -460 -529 -19 -19 -19 -8 -19 582 l0 602 116 121 117 120 341 -2 341 -3 3 -191z"></path><path d="M3200 1034 c-404 -471 -736 -860 -738 -865 -2 -5 293 -9 737 -9 l741 0 0 865 c0 476 -1 865 -2 865 -2 0 -334 -385 -738 -856z m600 -154 l0 -580 -506 0 -507 0 24 30 c65 81 975 1129 982 1129 4 1 7 -260 7 -579z"></path></g></svg>